<svg version="1.1" viewBox="0.0 0.0 512.0 512.0" fill="none" stroke="none" stroke-linecap="square" stroke-miterlimit="10" xmlns:xlink="http://www.w3.org/1999/xlink" xmlns="http://www.w3.org/2000/svg"><clipPath id="p.0"><path d="m0 0l512.0 0l0 512.0l-512.0 0l0 -512.0z" clip-rule="nonzero"/></clipPath><g clip-path="url(#p.0)"><path fill="#61dafb" d="m0 0l512.0 0l0 512.0l-512.0 0z" fill-rule="evenodd"/><path fill="#000000" fill-opacity="0.0" d="m5.7637796 89.020996l500.4724 0l0 500.4724l-500.4724 0z" fill-rule="evenodd"/><path fill="#ffffff" d="m137.45168 212.68126q-13.046875 0.390625 -22.296875 -4.5625q-9.234375 -4.96875 -14.109375 -13.046875q-4.859375 -8.078125 -4.859375 -16.84375q0 -7.984375 4.46875 -15.578125q4.484375 -7.59375 13.625 -12.75q9.15625 -5.15625 22.984375 -5.546875q11.28125 0 20.421875 3.703125q9.15625 3.703125 14.609375 10.90625q5.453125 7.203125 5.453125 17.90625q0 8.5625 -4.484375 16.640625q-4.46875 8.078125 -13.421875 13.34375q-8.953125 5.25 -22.390625 5.828125zm68.328125 40.6875q-3.3125 0 -4.28125 -4.875q-0.59375 -3.296875 -0.890625 -7.96875q-0.28125 -4.671875 -0.28125 -9.15625q0 -4.484375 0 -7.015625l0 -115.03125q0 -0.390625 0 -1.171875q0 -6.8125 -1.078125 -10.703125q-1.0625 -3.890625 -7.296875 -7.59375q-1.15625 -0.78125 -2.140625 -1.75q-0.96875 -0.96875 -0.96875 -2.34375q0 -2.140625 2.140625 -4.859375q2.140625 -2.71875 5.25 -2.71875q2.15625 0 5.84375 1.078125q3.703125 1.0625 7.59375 2.71875q3.890625 1.640625 6.625 3.390625q3.6875 2.34375 3.6875 4.671875q-0.1875 2.53125 -0.875 8.28125q-0.671875 5.734375 -0.671875 11.0l0 51.1875q9.140625 -0.1875 16.34375 -2.125q7.203125 -1.953125 9.9375 -2.734375q2.140625 -0.78125 3.5 -0.296875q1.359375 0.484375 2.140625 1.65625q1.546875 1.953125 3.109375 5.453125q1.5625 3.5 1.5625 4.859375q0 1.953125 -2.4375 3.8125q-2.4375 1.84375 -3.796875 1.84375q-7.203125 -0.984375 -15.28125 -1.375q-8.078125 -0.390625 -15.28125 -0.1875l0 51.96875q0 3.703125 -0.59375 8.765625q-0.578125 5.0625 -2.03125 9.9375q-1.453125 4.859375 -3.890625 8.0625q-2.4375 3.21875 -5.9375 3.21875zm-68.71875 -53.53125q7.796875 -0.390625 12.75 -3.890625q4.96875 -3.515625 7.296875 -8.859375q2.34375 -5.359375 2.34375 -10.609375q0 -5.0625 -2.140625 -9.640625q-2.140625 -4.578125 -6.921875 -7.6875q-4.765625 -3.109375 -12.734375 -3.109375q-11.875 -0.203125 -17.625 6.609375q-5.734375 6.8125 -5.734375 15.375q0 10.125 6.3125 15.96875q6.328125 5.84375 16.453125 5.84375zm-42.8125 -61.515625q-3.703125 0.578125 -4.875 0.390625q-1.171875 -0.1875 -3.5 -1.953125q-1.359375 -0.96875 -4.1875 -3.984375q-2.828125 -3.015625 -3.796875 -4.765625q-0.390625 -1.75 1.546875 -4.28125q1.953125 -2.53125 3.515625 -2.53125q3.109375 0.578125 9.046875 1.0625q5.9375 0.484375 13.234375 0.59375q7.3125 0.09375 14.3125 0.09375q7.015625 0 12.265625 -0.203125q20.25 -0.765625 33.0 -2.609375q12.75 -1.859375 17.21875 -3.03125q2.140625 -0.78125 3.203125 -0.1875q1.078125 0.578125 1.859375 1.75q1.5625 2.53125 2.53125 6.03125q0.96875 3.5 0.96875 4.484375q0 1.546875 -2.234375 3.40625q-2.234375 1.84375 -3.609375 1.84375q-3.109375 -0.390625 -9.25 -0.484375q-6.125 -0.09375 -13.53125 -0.09375q-7.390625 0 -14.78125 0.09375q-7.390625 0.09375 -13.046875 0.484375q-5.0625 0.1875 -12.0625 0.78125q-7.0 0.578125 -14.203125 1.359375q-7.203125 0.78125 -13.625 1.75zm32.5 -29.78125q-3.703125 -0.578125 -8.46875 -2.03125q-4.765625 -1.46875 -9.15625 -3.609375q-4.375 -2.140625 -6.90625 -4.28125q-0.78125 -0.984375 -0.390625 -2.921875q0.390625 -1.953125 1.75 -3.703125q1.375 -1.75 3.125 -1.75q7.390625 1.359375 15.953125 2.140625q8.578125 0.78125 15.765625 0.78125q6.234375 0 13.046875 -0.296875q6.8125 -0.296875 10.515625 -0.671875q3.109375 0.1875 5.15625 1.9375q2.046875 1.75 2.046875 3.3125q-0.203125 1.5625 -1.765625 4.578125q-1.546875 3.015625 -3.875 4.375q-3.515625 1.171875 -10.328125 1.859375q-6.8125 0.671875 -14.109375 0.765625q-7.296875 0.09375 -12.359375 -0.484375zm185.31395 51.96875q-4.484375 0 -8.1875 -3.109375q-3.6875 -3.109375 -3.6875 -11.09375l0 -14.015625q-0.1875 -1.171875 -2.140625 -2.53125q-2.34375 -1.5625 -3.796875 -2.828125q-1.453125 -1.265625 -1.65625 -2.234375q0.203125 -1.5625 1.65625 -4.1875q1.453125 -2.625 3.40625 -2.8125q4.484375 0.578125 10.40625 0.96875q5.9375 0.390625 9.640625 0.390625q3.3125 0 10.03125 -0.09375q6.71875 -0.109375 15.078125 -0.390625q8.375 -0.296875 17.03125 -0.6875q8.671875 -0.390625 15.875 -0.96875q0.390625 -3.515625 0.671875 -7.5q0.296875 -3.984375 0.484375 -7.109375q0 -1.75 -0.484375 -2.03125q-0.484375 -0.296875 -1.65625 -0.296875q-2.140625 0 -8.078125 0.203125q-5.9375 0.1875 -13.4375 0.578125q-7.484375 0.390625 -14.390625 0.6875q-6.90625 0.28125 -10.8125 0.46875q-2.90625 0.203125 -7.203125 0.59375q-4.28125 0.390625 -7.96875 1.171875q-3.890625 0.765625 -5.65625 0.578125q-1.75 -0.203125 -3.5 -1.5625q-1.9375 -1.546875 -4.765625 -4.265625q-2.828125 -2.734375 -3.21875 -3.515625q-0.375 -1.75 1.265625 -4.078125q1.65625 -2.34375 3.796875 -2.9375q5.0625 1.171875 10.40625 1.65625q5.359375 0.484375 12.46875 0.484375q7.109375 0 17.03125 -0.1875q3.5 0 8.953125 -0.28125q5.453125 -0.296875 11.1875 -0.78125q5.75 -0.5 10.515625 -1.265625q4.78125 -0.78125 7.109375 -1.5625q1.359375 -0.59375 1.9375 -0.59375q0.59375 0 1.765625 0.203125q0.390625 0.1875 0.578125 0.1875l14.015625 3.125q3.3125 1.15625 1.953125 4.671875q-0.59375 1.546875 -1.765625 5.453125q-1.15625 3.890625 -2.53125 8.46875q-1.359375 4.5625 -2.515625 8.0625q2.140625 1.171875 4.078125 2.734375q1.953125 1.5625 1.953125 2.53125q0 2.53125 -1.65625 5.15625q-1.65625 2.625 -3.984375 3.40625q-6.234375 -0.1875 -15.78125 -0.09375q-9.53125 0.09375 -20.140625 0.390625q-10.609375 0.28125 -20.546875 0.578125q-9.921875 0.296875 -16.921875 0.6875l0 12.453125q0 3.109375 0.875 3.984375q0.875 0.875 3.984375 0.875q4.875 0 9.734375 0.109375q4.875 0.09375 11.390625 -0.1875q6.515625 -0.296875 16.25 -0.6875q13.828125 -0.78125 22.0 -1.953125q8.171875 -1.171875 11.09375 -2.140625q2.140625 -0.78125 3.5 -0.1875q1.375 0.578125 2.140625 1.75q1.5625 1.9375 3.109375 4.375q1.5625 2.4375 1.5625 3.40625q0 1.75 -2.234375 4.09375q-2.234375 2.328125 -3.59375 2.328125q-3.703125 -0.390625 -13.640625 -0.390625q-9.921875 0 -20.8125 0.390625q-1.75 0 -6.625 0.203125q-4.859375 0.1875 -11.1875 0.390625q-6.328125 0.1875 -13.046875 0.390625q-6.71875 0.1875 -12.359375 0.28125q-5.640625 0.09375 -8.953125 0.09375zm36.78125 94.796875q-3.890625 0 -4.859375 -4.671875q-0.96875 -5.0625 -1.171875 -11.0q-0.1875 -5.9375 -0.1875 -9.4375l0 -39.90625q-8.375 0.203125 -16.546875 0.6875q-8.171875 0.484375 -16.15625 0.875q-8.375 0.390625 -15.390625 1.265625q-7.0 0.875 -13.03125 2.046875q-4.28125 0.96875 -6.140625 0.578125q-1.84375 -0.390625 -3.984375 -1.9375q-1.171875 -0.984375 -3.3125 -2.921875q-2.140625 -1.953125 -3.984375 -3.984375q-1.84375 -2.046875 -2.234375 -3.03125q-0.390625 -1.546875 1.75 -4.46875q2.140625 -2.921875 4.46875 -2.734375q6.234375 1.359375 14.890625 2.046875q8.671875 0.6875 18.40625 0.875q9.34375 0 20.625 -0.09375q11.296875 -0.09375 22.875 -0.484375q11.578125 -0.390625 21.984375 -0.78125q10.421875 -0.390625 17.828125 -0.78125q12.0625 -0.78125 21.890625 -1.9375q9.828125 -1.171875 15.875 -2.734375q3.890625 -0.96875 5.34375 -0.671875q1.46875 0.28125 2.828125 2.421875q1.359375 1.953125 2.90625 5.359375q1.5625 3.40625 1.5625 4.765625q-0.1875 2.140625 -2.8125 4.1875q-2.625 2.046875 -3.796875 2.046875q-5.453125 -0.59375 -10.609375 -0.875q-5.15625 -0.296875 -12.078125 -0.484375q-6.90625 -0.203125 -17.796875 -0.203125q-6.4375 0 -13.15625 0.109375q-6.703125 0.09375 -13.71875 0.28125l0 39.515625q0 4.859375 -0.96875 11.0q-0.96875 6.125 -3.609375 10.59375q-2.625 4.484375 -7.6875 4.484375z" fill-rule="nonzero"/><path fill="#ffffff" d="m159.64667 297.56125q-1.953125 3.109375 -4.1875 6.625q-2.234375 3.5 -4.1875 6.609375l-4.078125 6.234375q5.4375 3.703125 9.625 5.75q4.1875 2.03125 8.46875 2.625q1.75 1.15625 3.984375 4.078125q2.25 2.921875 3.609375 6.234375q5.84375 -8.375 10.40625 -16.640625q4.578125 -8.28125 7.109375 -15.09375q0 -0.1875 0.203125 -0.390625q2.140625 -6.03125 2.53125 -9.828125q0.390625 -3.796875 -3.890625 -7.5q-1.375 -1.546875 -1.46875 -3.0q-0.09375 -1.46875 0.484375 -2.25q2.34375 -4.09375 5.453125 -4.375q3.109375 -0.296875 5.640625 0.875q4.09375 1.359375 8.65625 4.484375q4.578125 3.109375 7.109375 5.4375q0.984375 0.78125 1.65625 1.953125q0.6875 1.171875 0.296875 2.140625q-1.359375 2.921875 -3.109375 6.71875q-1.75 3.796875 -4.09375 8.46875q-1.5625 3.109375 -3.21875 6.125q-1.640625 3.015625 -3.40625 5.9375q9.734375 6.234375 17.03125 9.84375q7.3125 3.59375 12.171875 4.5625q2.53125 1.359375 5.0625 4.578125q2.53125 3.203125 4.46875 7.09375q1.953125 3.890625 2.546875 7.59375q-0.203125 1.953125 -2.15625 3.90625q-1.9375 1.9375 -4.28125 3.015625q-2.328125 1.0625 -4.078125 0.875q-4.875 -4.484375 -11.296875 -10.21875q-6.421875 -5.75 -12.953125 -11.484375q-6.515625 -5.75 -12.15625 -10.234375q-7.390625 11.6875 -16.15625 21.515625q-8.75 9.828125 -19.65625 17.421875q-4.28125 3.109375 -8.5625 3.3125q-4.28125 0.1875 -6.421875 -2.140625q-0.78125 -0.984375 -0.59375 -2.53125q0.203125 -1.5625 1.75 -2.921875q4.296875 -3.3125 8.28125 -7.390625q3.984375 -4.09375 7.6875 -8.375q-4.859375 -5.640625 -10.609375 -11.1875q-5.734375 -5.5625 -12.171875 -10.609375q-7.390625 9.53125 -14.984375 16.546875q-7.59375 7.0 -15.375 11.671875q-4.09375 2.53125 -8.46875 2.625q-4.375 0.09375 -5.9375 -3.015625q-0.96875 -2.53125 2.921875 -5.25q8.375 -5.84375 15.375 -13.328125q7.015625 -7.5 12.359375 -15.375q5.359375 -7.890625 8.28125 -14.515625q2.140625 -4.484375 2.421875 -8.078125q0.296875 -3.609375 -2.8125 -6.125q-2.34375 -2.140625 -0.390625 -4.875q2.140625 -3.109375 4.953125 -3.203125q2.828125 -0.109375 5.171875 1.0625q3.6875 1.75 7.09375 4.28125q3.40625 2.53125 5.9375 5.0625q0.984375 0.96875 1.65625 2.34375q0.6875 1.359375 0.296875 2.328125zm45.9375 100.25q12.0625 -0.78125 21.890625 -2.046875q9.84375 -1.265625 15.875 -2.828125q2.53125 -0.765625 4.28125 -0.765625q2.140625 0 3.890625 2.53125q1.359375 2.140625 2.921875 5.640625q1.5625 3.5 1.5625 4.859375q0 2.140625 -2.734375 4.1875q-2.71875 2.046875 -3.890625 2.046875q-4.671875 -0.578125 -11.6875 -0.875q-7.0 -0.296875 -14.5 -0.390625q-7.484375 -0.09375 -14.296875 -0.09375q-16.75 0.1875 -36.609375 0.671875q-19.84375 0.484375 -40.671875 1.265625q-3.109375 0.203125 -8.28125 0.796875q-5.15625 0.578125 -9.921875 1.265625q-4.765625 0.671875 -7.109375 1.25q-1.9375 0.578125 -3.296875 0.578125q-2.734375 0 -5.453125 -1.9375q-3.125 -1.953125 -6.71875 -5.359375q-3.59375 -3.40625 -3.984375 -4.765625q-0.59375 -1.75 1.546875 -4.765625q2.140625 -3.015625 4.671875 -2.625q6.234375 1.359375 15.859375 2.234375q9.640625 0.875 22.6875 0.875q4.671875 0 12.15625 -0.09375q7.5 -0.09375 16.359375 -0.28125q8.859375 -0.203125 17.515625 -0.390625q8.671875 -0.203125 16.0625 -0.5q7.390625 -0.296875 11.875 -0.484375zm76.693054 6.421875q-4.09375 1.953125 -7.890625 1.65625q-3.78125 -0.296875 -4.5625 -3.40625q-0.390625 -1.75 0.765625 -3.203125q1.171875 -1.46875 3.125 -2.828125q10.125 -6.421875 20.4375 -16.25q10.3125 -9.84375 19.453125 -21.8125q9.15625 -11.96875 16.0625 -25.203125q6.921875 -13.234375 10.421875 -26.28125q0.390625 -2.140625 -1.5625 -2.140625q-5.4375 0.1875 -11.484375 0.390625q-6.03125 0.1875 -9.53125 0.578125q-5.453125 0.390625 -12.171875 1.078125q-6.703125 0.671875 -12.546875 1.84375q-0.203125 0 -0.390625 0q-3.3125 0.78125 -4.578125 0.6875q-1.265625 -0.09375 -3.40625 -2.046875q-1.359375 -1.171875 -4.1875 -4.28125q-2.8125 -3.109375 -3.796875 -4.875q-0.390625 -1.75 1.5625 -4.171875q1.953125 -2.4375 3.5 -2.4375q7.203125 1.359375 16.640625 1.75q9.453125 0.390625 17.03125 0q5.84375 -0.390625 11.875 -0.96875q6.046875 -0.59375 10.8125 -1.5625q4.765625 -0.96875 6.515625 -1.953125q1.359375 -0.578125 2.328125 -0.46875q0.984375 0.09375 1.953125 0.46875q0.203125 0 0.203125 0q3.109375 0.984375 7.484375 2.640625q4.390625 1.640625 6.921875 2.625q3.296875 1.171875 1.75 5.0625q-0.78125 2.53125 -2.828125 7.296875q-2.046875 4.765625 -3.40625 8.078125q-4.46875 11.484375 -12.265625 24.71875q-7.78125 13.234375 -18.0 25.984375q-10.21875 12.75 -22.0 23.078125q-11.78125 10.3125 -24.234375 15.953125zm113.296875 36.015625q-3.3125 0 -4.28125 -4.875q-0.59375 -3.296875 -0.890625 -7.96875q-0.28125 -4.671875 -0.28125 -9.15625q0 -4.484375 0 -7.015625l0 -115.03125q0 -0.390625 0 -1.171875q0 -6.8125 -1.078125 -10.703125q-1.0625 -3.890625 -7.296875 -7.59375q-1.171875 -0.78125 -2.140625 -1.75q-0.96875 -0.96875 -0.96875 -2.34375q0 -2.140625 2.140625 -4.859375q2.140625 -2.71875 5.25 -2.71875q2.140625 0 5.84375 1.078125q3.703125 1.0625 7.59375 2.71875q3.890625 1.640625 6.609375 3.390625q3.703125 2.34375 3.703125 4.671875q-0.1875 2.53125 -0.875 8.28125q-0.6875 5.734375 -0.6875 11.0l-0.1875 114.0625q0 3.703125 -0.59375 8.765625q-0.578125 5.0625 -2.046875 9.9375q-1.453125 4.859375 -3.890625 8.0625q-2.421875 3.21875 -5.921875 3.21875z" fill-rule="nonzero"/></g></svg>